<svg xmlns="http://www.w3.org/2000/svg"><!-- icomoon.io -->
  <!-- duplicate the following symbol element to add a new icon to this sprite -->
  <symbol id="" viewBox="0 0 48 48">
         
  </symbol>
  
  <symbol id="bug-report" viewBox="0 0 48 48">
    <path d="M40 16h-5.62c-.9-1.56-2.14-2.91-3.63-3.92L34 8.83 31.17 6l-4.35 4.35c-.9-.22-1.85-.35-2.82-.35-.97 0-1.92.13-2.82.35L16.83 6 14 8.83l3.25 3.25c-1.49 1.01-2.73 2.36-3.63 3.92H8v4h4.18c-.11.65-.18 1.32-.18 2v2H8v4h4v2c0 .68.07 1.35.18 2H8v4h5.62c2.07 3.58 5.94 6 10.38 6s8.31-2.42 10.38-6H40v-4h-4.18c.11-.65.18-1.32.18-2v-2h4v-4h-4v-2c0-.68-.07-1.35-.18-2H40v-4zM28 32h-8v-4h8v4zm0-8h-8v-4h8v4z"/>         
  </symbol>

  <symbol id="check" viewBox="0 0 48 48">
    <path d="M18 32.34L9.66 24l-2.83 2.83L18 38l24-24-2.83-2.83z"/>
  </symbol>

  <symbol id="add-circle" viewBox="0 0 48 48">
    <path d="M24 4C12.95 4 4 12.95 4 24s8.95 20 20 20 20-8.95 20-20S35.05 4 24 4zm10 22h-8v8h-4v-8h-8v-4h8v-8h4v8h8v4z"/>     
  </symbol>
  
  <symbol id="warning" viewBox="0 0 48 48">
    <path d="M2 42h44L24 4 2 42zm24-6h-4v-4h4v4zm0-8h-4v-8h4v8z"/>    
  </symbol>
  
</svg>