<svg xmlns="http://www.w3.org/2000/svg"><!-- icomoon.io -->
  <!-- duplicate the following symbol element to add a new icon to this sprite -->
  <symbol id="" viewBox="0 0 48 48">
         
  </symbol>
  
  <symbol id="bug-report" viewBox="0 0 48 48">
    <path d="M40 16h-5.62c-.9-1.56-2.14-2.91-3.63-3.92L34 8.83 31.17 6l-4.35 4.35c-.9-.22-1.85-.35-2.82-.35-.97 0-1.92.13-2.82.35L16.83 6 14 8.83l3.25 3.25c-1.49 1.01-2.73 2.36-3.63 3.92H8v4h4.18c-.11.65-.18 1.32-.18 2v2H8v4h4v2c0 .68.07 1.35.18 2H8v4h5.62c2.07 3.58 5.94 6 10.38 6s8.31-2.42 10.38-6H40v-4h-4.18c.11-.65.18-1.32.18-2v-2h4v-4h-4v-2c0-.68-.07-1.35-.18-2H40v-4zM28 32h-8v-4h8v4zm0-8h-8v-4h8v4z"/>         
  </symbol>

  <symbol id="check" viewBox="0 0 48 48">
    <path d="M18 32.34L9.66 24l-2.83 2.83L18 38l24-24-2.83-2.83z"/>
  </symbol>

  <symbol id="add-circle" viewBox="0 0 48 48">
    <path d="M24 4C12.95 4 4 12.95 4 24s8.95 20 20 20 20-8.95 20-20S35.05 4 24 4zm10 22h-8v8h-4v-8h-8v-4h8v-8h4v8h8v4z"/>     
  </symbol>
  
  <symbol id="warning" viewBox="0 0 48 48">
    <path d="M2 42h44L24 4 2 42zm24-6h-4v-4h4v4zm0-8h-4v-8h4v8z"/>    
  </symbol>

  <symbol id="settings" viewBox="0 0 48 48">
    <path d="M38.86 25.95c.08-.64.14-1.29.14-1.95s-.06-1.31-.14-1.95l4.23-3.31c.38-.3.49-.84.24-1.28l-4-6.93c-.25-.43-.77-.61-1.22-.43l-4.98 2.01c-1.03-.79-2.16-1.46-3.38-1.97L29 4.84c-.09-.47-.5-.84-1-.84h-8c-.5 0-.91.37-.99.84l-.75 5.3c-1.22.51-2.35 1.17-3.38 1.97L9.9 10.1c-.45-.17-.97 0-1.22.43l-4 6.93c-.25.43-.14.97.24 1.28l4.22 3.31C9.06 22.69 9 23.34 9 24s.06 1.31.14 1.95l-4.22 3.31c-.38.3-.49.84-.24 1.28l4 6.93c.25.43.77.61 1.22.43l4.98-2.01c1.03.79 2.16 1.46 3.38 1.97l.75 5.3c.08.47.49.84.99.84h8c.5 0 .91-.37.99-.84l.75-5.3c1.22-.51 2.35-1.17 3.38-1.97l4.98 2.01c.45.17.97 0 1.22-.43l4-6.93c.25-.43.14-.97-.24-1.28l-4.22-3.31zM24 31c-3.87 0-7-3.13-7-7s3.13-7 7-7 7 3.13 7 7-3.13 7-7 7z"/>
  </symbol>

  <symbol id="add-shopping-cart" viewBox="0 0 48 48">
    <path d="M22 18h4v-6h6V8h-6V2h-4v6h-6v4h6v6zm-8 18c-2.21 0-3.98 1.79-3.98 4s1.77 4 3.98 4 4-1.79 4-4-1.79-4-4-4zm20 0c-2.21 0-3.98 1.79-3.98 4s1.77 4 3.98 4 4-1.79 4-4-1.79-4-4-4zm-19.65-6.5c0-.09.02-.17.06-.24l1.8-3.26h14.9c1.5 0 2.81-.83 3.5-2.06l7.72-14.02L38.83 8h-.01l-2.21 4-5.51 10H17.07l-.26-.54L12.32 12l-1.9-4-1.89-4H2v4h4l7.2 15.17-2.71 4.9c-.31.58-.49 1.23-.49 1.93 0 2.21 1.79 4 4 4h24v-4H14.85c-.28 0-.5-.22-.5-.5z"/>
  </symbol>
  
</svg>